<svg width="32" height="32" viewBox="0 0 32 32" fill="none" xmlns="http://www.w3.org/2000/svg">
<g clip-path="url(#clip0_14614_78126)">
<path d="M23.3846 0H8.61539C6.33119 0.00244342 4.14126 0.910918 2.52609 2.52609C0.910918 4.14126 0.00244342 6.33119 0 8.61539V23.3846C0.00244342 25.6688 0.910918 27.8587 2.52609 29.4739C4.14126 31.0891 6.33119 31.9976 8.61539 32H23.3846C25.6688 31.9976 27.8587 31.0891 29.4739 29.4739C31.0891 27.8587 31.9976 25.6688 32 23.3846V8.61539C31.9976 6.33119 31.0891 4.14126 29.4739 2.52609C27.8587 0.910918 25.6688 0.00244342 23.3846 0ZM16 23.3846C14.5395 23.3846 13.1117 22.9515 11.8973 22.1401C10.6829 21.3287 9.73643 20.1753 9.17751 18.826C8.61858 17.4766 8.47234 15.9918 8.75728 14.5593C9.04222 13.1269 9.74553 11.811 10.7783 10.7783C11.811 9.74553 13.1269 9.04222 14.5593 8.75728C15.9918 8.47234 17.4766 8.61858 18.826 9.17751C20.1753 9.73643 21.3287 10.6829 22.1401 11.8973C22.9515 13.1117 23.3846 14.5395 23.3846 16C23.3826 17.9579 22.6039 19.835 21.2195 21.2195C19.835 22.6039 17.9579 23.3826 16 23.3846ZM25.2308 8.61539C24.8656 8.61539 24.5087 8.50711 24.2051 8.30425C23.9015 8.10139 23.6649 7.81306 23.5251 7.47572C23.3854 7.13838 23.3489 6.76718 23.4201 6.40906C23.4913 6.05094 23.6672 5.72199 23.9253 5.4638C24.1835 5.20561 24.5125 5.02978 24.8706 4.95855C25.2287 4.88732 25.5999 4.92388 25.9373 5.06361C26.2746 5.20334 26.5629 5.43996 26.7658 5.74356C26.9686 6.04716 27.0769 6.4041 27.0769 6.76923C27.0769 7.25886 26.8824 7.72844 26.5362 8.07466C26.19 8.42088 25.7204 8.61539 25.2308 8.61539ZM20.9231 16C20.9231 16.9737 20.6343 17.9255 20.0934 18.7351C19.5524 19.5447 18.7836 20.1757 17.884 20.5483C16.9844 20.9209 15.9945 21.0184 15.0396 20.8285C14.0846 20.6385 13.2074 20.1696 12.5189 19.4811C11.8304 18.7926 11.3615 17.9154 11.1715 16.9604C10.9816 16.0055 11.0791 15.0156 11.4517 14.116C11.8243 13.2164 12.4553 12.4476 13.2649 11.9066C14.0745 11.3657 15.0263 11.0769 16 11.0769C17.3057 11.0769 18.5579 11.5956 19.4811 12.5189C20.4044 13.4421 20.9231 14.6943 20.9231 16Z" fill="#4B0983"/>
</g>
<defs>
<clipPath id="clip0_14614_78126">
<rect width="32" height="32" fill="white"/>
</clipPath>
</defs>
</svg>
