<svg width="32" height="32" viewBox="0 0 32 32" fill="none" xmlns="http://www.w3.org/2000/svg">
<path d="M30.0803 9.55258V15.1229C30.0803 15.4184 29.9636 15.7018 29.7558 15.9107C29.5481 16.1196 29.2664 16.237 28.9726 16.237C26.6586 16.2424 24.3779 15.6828 22.3264 14.6063V20.1363C22.3264 22.9433 21.2178 25.6353 19.2443 27.6201C17.2708 29.6049 14.5942 30.72 11.8034 30.72C9.01246 30.72 6.33587 29.6049 4.36241 27.6201C2.38895 25.6353 1.28027 22.9433 1.28027 20.1363C1.28027 14.9976 5.00627 10.455 9.94797 9.56929C10.1074 9.54079 10.2711 9.54779 10.4275 9.58979C10.584 9.6318 10.7293 9.70778 10.8534 9.8124C10.9775 9.91702 11.0773 10.0477 11.1457 10.1953C11.2141 10.3429 11.2496 10.5038 11.2495 10.6667V16.6116C11.2496 16.8225 11.1901 17.029 11.0781 17.2072C10.9661 17.3855 10.8061 17.5281 10.6167 17.6185C10.169 17.832 9.78645 18.1625 9.50897 18.5754C9.2315 18.9884 9.06927 19.4686 9.03922 19.9661C9.00916 20.4635 9.11238 20.96 9.3381 21.4037C9.56382 21.8474 9.90378 22.222 10.3225 22.4885C10.7412 22.755 11.2234 22.9037 11.7187 22.9189C12.214 22.9341 12.7043 22.8154 13.1384 22.5751C13.5726 22.3349 13.9347 21.9818 14.1869 21.5528C14.4392 21.1239 14.5724 20.6347 14.5726 20.1363V1.75406C14.5726 1.45859 14.6893 1.17522 14.897 0.966289C15.1048 0.757359 15.3865 0.639984 15.6803 0.639984H21.2187C21.5125 0.639984 21.7943 0.757359 22.002 0.966289C22.2097 1.17522 22.3264 1.45859 22.3264 1.75406C22.3283 3.52632 23.0291 5.22546 24.2751 6.47864C25.5211 7.73182 27.2105 8.43666 28.9726 8.4385C29.2664 8.4385 29.5481 8.55588 29.7558 8.76481C29.9636 8.97374 30.0803 9.25711 30.0803 9.55258Z" fill="#4B0983"/>
</svg>
