<svg width="14" height="14" viewBox="0 0 14 14" fill="none" xmlns="http://www.w3.org/2000/svg">
<path d="M13.8024 12.8763L10.5299 9.60369C12.5688 7.05354 12.1542 3.33346 9.60398 1.29453C7.05364 -0.744331 3.33353 -0.329755 1.29453 2.22041C-0.744296 4.77056 -0.32981 8.49064 2.22045 10.5296C4.37893 12.2552 7.44507 12.2553 9.60355 10.5299L12.876 13.8022C13.1286 14.0613 13.5433 14.0665 13.8022 13.814C14.0613 13.5614 14.0665 13.1467 13.8139 12.8878C13.8101 12.8839 13.8062 12.88 13.8022 12.8761L13.8024 12.8763ZM1.34279 5.92897C1.34279 3.3968 3.39559 1.344 5.92792 1.344C8.46018 1.344 10.5131 3.39672 10.5131 5.92897C10.5131 8.46125 8.46026 10.5139 5.92792 10.5139C3.3969 10.5111 1.34569 8.45998 1.34279 5.92897Z" fill="white"/>
</svg>
