<svg width="32" height="32" viewBox="0 0 32 32" fill="none" xmlns="http://www.w3.org/2000/svg">
<g clip-path="url(#clip0_14614_78125)">
<path d="M16 0C7.16364 0 0 7.20046 0 16.0822C0 24.1453 5.90909 30.8026 13.6087 31.9656V20.3448H9.65018V16.1173H13.6087V13.3044C13.6087 8.64713 15.8662 6.60249 19.7171 6.60249C21.5615 6.60249 22.5367 6.73992 22.9985 6.80279V10.4929H20.3716C18.7367 10.4929 18.1658 12.0507 18.1658 13.8066V16.1173H22.9571L22.3069 20.3448H18.1658V32C25.9753 30.9349 32 24.2235 32 16.0822C32 7.20046 24.8364 0 16 0Z" fill="#4B0983"/>
</g>
<defs>
<clipPath id="clip0_14614_78125">
<rect width="32" height="32" fill="white"/>
</clipPath>
</defs>
</svg>
